<svg width="600" height="215" viewBox="0 0 600 215" fill="none" xmlns="http://www.w3.org/2000/svg">
<path d="M2.93348 2.95504C3.84571 2.01872 5.07455 1.50011 6.34734 1.50011H242.073C243.347 1.50011 244.576 2.01897 245.486 2.95431L245.487 2.95531C246.401 3.89275 246.921 5.17241 246.921 6.51505V46.4335C246.921 47.776 246.401 49.0557 245.487 49.9933L245.486 49.9942C244.576 50.9296 243.347 51.4485 242.073 51.4485H6.34734C5.0746 51.4485 3.84574 50.9298 2.93346 49.9935C2.01988 49.0556 1.5 47.7758 1.5 46.4335V6.51505C1.5 5.17259 2.01994 3.89272 2.93348 2.95504ZM2.93348 2.95504L1.85909 1.90829M2.93348 2.95504L1.85909 1.90829M1.85909 1.90829C3.04944 0.686507 4.66393 0.000113635 6.34734 0.000113635H242.073C243.758 0.000113635 245.372 0.686507 246.561 1.90829H1.85909ZM598.493 48.9337L598.491 48.9728V49.0119V82.8472C597.99 96.0725 592.517 108.577 583.235 117.742C573.948 126.912 561.568 132.026 548.697 132.022H6.34734C5.07465 132.022 3.84582 131.503 2.93355 130.567C2.01991 129.629 1.5 128.349 1.5 127.007V87.0886C1.5 85.7461 2.0199 84.4663 2.93346 83.5284C3.84563 82.5922 5.07446 82.0737 6.34734 82.0737H527.636H529.879H530.933C534.912 82.0737 538.723 80.4506 541.524 77.5746C544.324 74.7001 545.89 70.8097 545.89 66.7611C545.89 62.7125 544.324 58.8218 541.524 55.9473C538.723 53.0713 534.912 51.4485 530.933 51.4485H529.094H527.726H357.918C357.289 51.4485 356.663 51.3213 356.076 51.0721C355.491 50.8232 354.956 50.4573 354.504 49.9931C354.052 49.5301 353.693 48.9777 353.446 48.366L353.445 48.3624C353.197 47.7534 353.07 47.0979 353.07 46.4335V6.51505C353.07 5.85063 353.197 5.19514 353.445 4.5859L353.446 4.58249C353.693 3.97083 354.052 3.41853 354.504 2.95547C354.956 2.4912 355.491 2.12515 356.076 1.87624C356.663 1.6273 357.289 1.50011 357.918 1.50011L548.988 1.50012L548.992 1.50011C561.48 1.47343 573.522 6.29153 582.705 14.9998C591.885 23.7053 597.529 35.6565 598.494 48.4625C598.502 48.6193 598.501 48.7766 598.493 48.9337ZM594.795 148.047L594.805 148.077C594.802 148.093 594.8 148.11 594.796 148.126L594.743 148.398L594.79 148.67C595.628 153.552 595.998 158.507 595.89 163.463L595.89 163.479V163.495V163.501V163.507V163.513V163.52V163.526V163.532V163.538V163.544V163.55V163.556V163.562V163.568V163.574V163.58V163.586V163.592V163.598V163.604V163.61V163.616V163.622V163.628V163.634V163.64V163.646V163.652V163.658V163.664V163.67V163.676V163.682V163.688V163.693V163.699V163.705V163.711V163.717V163.723V163.729V163.735V163.741V163.747V163.753V163.759V163.764V163.77V163.776V163.782V163.788V163.794V163.8V163.806V163.811V163.817V163.823V163.829V163.835V163.841V163.846V163.852V163.858V163.864V163.87V163.876V163.881V163.887V163.893V163.899V163.905V163.91V163.916V163.922V163.928V163.933V163.939V163.945V163.951V163.956V163.962V163.968V163.974V163.979V163.985V163.991V163.996V164.002V164.008V164.013V164.019V164.025V164.031V164.036V164.042V164.048V164.053V164.059V164.064V164.07V164.076V164.081V164.087V164.093V164.098V164.104V164.109V164.115V164.121V164.126V164.132V164.137V164.143V164.149V164.154V164.16V164.165V164.171V164.176V164.182V164.187V164.193V164.198V164.204V164.209V164.215V164.22V164.226V164.231V164.237V164.242V164.248V164.253V164.259V164.264V164.27V164.275V164.281V164.286V164.291V164.297V164.302V164.308V164.313V164.319V164.324V164.329V164.335V164.34V164.345V164.351V164.356V164.362V164.367V164.372V164.378V164.383V164.388V164.393V164.399V164.404V164.409V164.415V164.42V164.425V164.431V164.436V164.441V164.446V164.452V164.457V164.462V164.467V164.473V164.478V164.483V164.488V164.493V164.499V164.504V164.509V164.514V164.519V164.524V164.53V164.535V164.54V164.545V164.55V164.555V164.56V164.566V164.571V164.576V164.581V164.586V164.591V164.596V164.601V164.606V164.611V164.616V164.621V164.626V164.631V164.636V164.641V164.646V164.651V164.656V164.661V164.666V164.671V164.676V164.681V164.686V164.691V164.696V164.701V164.706V164.711V164.716V164.721V164.726V164.731V164.735V164.74V164.745V164.75V164.755V164.76V164.765V164.769V164.774V164.779V164.784V164.789V164.793V164.798V164.803V164.808V164.813V164.817V164.822V164.827V164.832V164.836V164.841V164.846V164.851V164.855V164.86V164.865V164.869V164.874V164.879V164.883V164.888V164.893V164.897V164.902V164.907V164.911V164.916V164.92V164.925V164.93V164.934V164.939V164.943V164.948V164.952V164.957V164.962V164.966V164.971V164.975V164.98V164.984V164.989V164.993V164.998V165.002V165.006V165.011V165.015V165.02V165.024V165.029V165.033V165.037V165.042V165.046V165.051V165.055V165.059V165.064V165.068V165.072V165.077V165.081V165.085V165.09V165.094V165.098V165.103V165.107V165.111V165.115V165.12V165.124V165.128V165.132V165.137V165.141V165.145V165.149V165.153V165.158V165.162V165.166V165.17V165.174V165.178V165.183V165.187V165.191V165.195V165.199V165.203V165.207V165.211V165.215V165.219V165.223V165.227V165.231V165.235V165.239V165.243V165.247V165.251V165.255V165.259V165.263V165.267V165.271V165.275V165.279V165.283V165.287V165.291V165.295V165.299V165.303V165.306V165.31V165.314V165.318V165.322V165.326V165.329V165.333V165.337V165.341V165.345V165.348V165.352V165.356V165.36V165.363V165.367V165.371V165.374V165.378V165.382V165.386V165.389V165.393V165.397V165.4V165.404V165.407V165.411V165.415V165.418V165.422V165.425V165.429V165.433V165.436V165.44V165.443V165.447V165.45V165.454V165.457V165.461V165.464V165.468V165.471V165.474V165.478V165.481V165.485V165.488V165.492V165.495V165.498V165.502V165.505V165.508V165.512V165.515V165.518V165.522V165.525V165.528V165.532V165.535V165.538V165.541V165.545V165.548V165.551V165.554V165.558V165.561V165.564V165.567V165.57V165.573V165.577V165.58V165.583V165.586V165.589V165.592V165.595V165.598V165.601V165.604V165.608V165.611V165.614V165.617V165.62V165.623V165.626V165.629V165.632V165.634V165.637V165.64V165.643V165.646V165.649V165.652V165.655V165.658V165.661V165.663V165.666V165.669V165.672V165.675V165.678V165.68V165.683V165.686V165.689V165.691V165.694V165.697V165.7V165.702V165.705V165.708V165.71V165.713V165.716V165.718V165.721V165.724V165.726V165.729V165.731V165.734V165.737C594.847 178.528 589.163 190.445 579.973 199.129L581.003 200.22L579.973 199.13C570.771 207.826 558.725 212.645 546.23 212.641H354.867C354.387 212.641 353.917 212.446 353.562 212.083C353.208 211.72 353.003 211.219 353.003 210.688V164.646C353.003 164.116 353.209 163.615 353.562 163.251C353.917 162.888 354.387 162.693 354.867 162.693H554.483H554.516L554.548 162.692C565.035 162.241 575.221 158.983 584.096 153.244L584.129 153.223L584.16 153.201C586.849 151.26 589.282 149.275 591.86 147.159L591.87 147.15C592.103 146.955 592.378 146.822 592.669 146.762C592.958 146.702 593.257 146.714 593.541 146.799L593.542 146.8C593.826 146.884 594.09 147.04 594.31 147.257C594.531 147.476 594.699 147.747 594.795 148.047ZM245.487 211.045L245.486 211.046C244.576 211.981 243.347 212.5 242.073 212.5H6.34734C5.07465 212.5 3.84582 211.981 2.93355 211.045C2.01991 210.107 1.5 208.827 1.5 207.485V167.567C1.5 166.224 2.01994 164.944 2.93348 164.007C3.84572 163.07 5.07455 162.552 6.34734 162.552H242.073C243.347 162.552 244.576 163.07 245.486 164.006L245.487 164.007C246.401 164.944 246.921 166.224 246.921 167.567V207.485C246.921 208.828 246.401 210.107 245.487 211.045Z" stroke="#5EFC5B" stroke-width="3"/>
</svg>
