<svg width="246" height="69" viewBox="0 0 246 69" fill="none" xmlns="http://www.w3.org/2000/svg">
<path d="M244.72 2.36321C244.55 1.83281 244.254 1.35328 243.861 0.965611C243.469 0.577937 242.991 0.293858 242.468 0.137776C241.946 -0.0185367 241.394 -0.0422467 240.86 0.0687145C240.326 0.179676 239.826 0.421857 239.404 0.774769C236.825 2.8927 234.425 4.8495 231.779 6.76024C223.126 12.355 213.199 15.5296 202.98 15.9686H3.36432C2.47165 15.9686 1.61708 16.3323 0.984589 16.9799C0.354341 17.6275 0 18.5058 0 19.4218V65.4637C0 66.3795 0.354341 67.2578 0.984589 67.9053C1.61708 68.5529 2.47165 68.9169 3.36432 68.9169H194.726C207.61 68.921 220.024 63.9515 229.5 54.9952C238.978 46.0389 244.828 33.7512 245.886 20.5728C245.886 20.1815 245.886 19.3067 245.886 18.2707C245.996 13.2188 245.62 8.16819 244.765 3.19197C244.819 2.91895 244.828 2.63854 244.787 2.36321H244.72Z" fill="#7ffd45"/>
</svg>
