<svg width="300" height="134" viewBox="0 0 300 134" fill="none" xmlns="http://www.w3.org/2000/svg">
<path fill-rule="evenodd" clip-rule="evenodd" d="M0 133.522H248.697C261.968 133.526 274.725 128.253 284.289 118.81C293.852 109.366 299.482 96.4871 299.991 82.8758V49.0119C300.002 48.7971 300.002 48.5819 299.991 48.3673C299.002 35.1887 293.195 22.8811 283.737 13.9114C274.279 4.94168 261.867 -0.0273984 248.988 0.000113635H57.9177C57.0856 0.000113635 56.2602 0.168628 55.4886 0.496033C54.7193 0.82344 54.0195 1.30333 53.4297 1.90829C52.8398 2.51327 52.3733 3.23146 52.0548 4.0219C51.734 4.81233 51.5703 5.6595 51.5703 6.51505V46.4335C51.5703 47.289 51.734 48.1362 52.0548 48.9265C52.3733 49.717 52.8398 50.4353 53.4297 51.0403C54.0195 51.6453 54.7193 52.125 55.4886 52.4524C56.2602 52.78 57.0856 52.9485 57.9177 52.9485H227.726H229.094H230.933C234.502 52.9485 237.926 54.4036 240.45 56.994C242.973 59.5843 244.39 63.0977 244.39 66.7611C244.39 70.4244 242.973 73.9376 240.45 76.528C237.926 79.1183 234.502 80.5737 230.933 80.5737H229.879H227.636H0V133.522Z" fill="#5EFC5B"/>
</svg>
