<svg width="100%" height="100%" viewBox="0 0 593 781" fill="none" xmlns="http://www.w3.org/2000/svg">
<g filter="url(#filter0_d_116_23)">
<mask id="path-1-outside-1_116_23" maskUnits="userSpaceOnUse" x="4.04834" y="2.30347" width="581" height="769" fill="black">
<rect fill="white" x="4.04834" y="2.30347" width="581" height="769"/>
<path fill-rule="evenodd" clip-rule="evenodd" d="M549.862 4.30347H582.381V769H549.862V262.559L324.125 36.8223H232.179V160.325C254.3 173.684 269.09 197.955 269.09 225.682C269.09 243.02 263.306 259.007 253.563 271.82C252.915 285.303 243.183 304.312 226.946 321.456C217.09 331.862 206.417 339.912 196.548 344.94V370.237L381.672 477.118L377.92 483.617L196.548 378.902V543.856L318.113 754.414L311.614 758.166L193.135 552.954L80.6037 764.585L73.9778 761.061L189.043 544.666V377.124L10.9277 484.687L7.04834 478.263L189.043 368.357V348.237C178.751 351.996 169.945 351.879 164.789 346.995C156.099 338.764 160.365 319.444 173.899 299.617C140.903 291.209 116.502 261.295 116.502 225.682C116.502 183.546 150.66 149.387 192.796 149.387C204.176 149.387 214.974 151.879 224.675 156.347V36.8223H207.165V4.30347L549.862 4.30347ZM181.953 301.211C176.402 308.863 172.384 316.385 170.066 323.03C166.231 334.028 167.903 339.609 169.949 341.547C171.995 343.484 177.659 344.852 188.432 340.425C188.635 340.342 188.839 340.257 189.043 340.17V301.976H192.796H196.548V336.405C204.591 331.782 213.277 324.975 221.497 316.296C232.34 304.848 239.887 292.768 243.562 282.635C230.075 294.665 212.289 301.976 192.796 301.976C189.115 301.976 185.495 301.715 181.953 301.211ZM549.862 36.8223V241.334L345.351 36.8223L549.862 36.8223Z"/>
</mask>
<path fill-rule="evenodd" clip-rule="evenodd" d="M549.862 4.30347H582.381V769H549.862V262.559L324.125 36.8223H232.179V160.325C254.3 173.684 269.09 197.955 269.09 225.682C269.09 243.02 263.306 259.007 253.563 271.82C252.915 285.303 243.183 304.312 226.946 321.456C217.09 331.862 206.417 339.912 196.548 344.94V370.237L381.672 477.118L377.92 483.617L196.548 378.902V543.856L318.113 754.414L311.614 758.166L193.135 552.954L80.6037 764.585L73.9778 761.061L189.043 544.666V377.124L10.9277 484.687L7.04834 478.263L189.043 368.357V348.237C178.751 351.996 169.945 351.879 164.789 346.995C156.099 338.764 160.365 319.444 173.899 299.617C140.903 291.209 116.502 261.295 116.502 225.682C116.502 183.546 150.66 149.387 192.796 149.387C204.176 149.387 214.974 151.879 224.675 156.347V36.8223H207.165V4.30347L549.862 4.30347ZM181.953 301.211C176.402 308.863 172.384 316.385 170.066 323.03C166.231 334.028 167.903 339.609 169.949 341.547C171.995 343.484 177.659 344.852 188.432 340.425C188.635 340.342 188.839 340.257 189.043 340.17V301.976H192.796H196.548V336.405C204.591 331.782 213.277 324.975 221.497 316.296C232.34 304.848 239.887 292.768 243.562 282.635C230.075 294.665 212.289 301.976 192.796 301.976C189.115 301.976 185.495 301.715 181.953 301.211ZM549.862 36.8223V241.334L345.351 36.8223L549.862 36.8223Z" fill="#F7EBDB"/>
<path d="M582.381 4.30347H584.381V2.30347H582.381V4.30347ZM549.862 4.30347L549.862 2.30347L549.862 4.30347ZM582.381 769V771H584.381V769H582.381ZM549.862 769H547.862V771H549.862V769ZM549.862 262.559H551.862V261.731L551.276 261.145L549.862 262.559ZM324.125 36.8223L325.539 35.4081L324.954 34.8223H324.125V36.8223ZM232.179 36.8223V34.8223H230.179V36.8223H232.179ZM232.179 160.325H230.179V161.454L231.145 162.037L232.179 160.325ZM253.563 271.82L251.971 270.609L251.595 271.104L251.565 271.724L253.563 271.82ZM226.946 321.456L228.398 322.831L228.398 322.831L226.946 321.456ZM196.548 344.94L195.64 343.158L194.548 343.714V344.94H196.548ZM196.548 370.237H194.548V371.391L195.548 371.969L196.548 370.237ZM381.672 477.118L383.404 478.118L384.404 476.386L382.672 475.386L381.672 477.118ZM377.92 483.617L376.92 485.349L378.652 486.349L379.652 484.617L377.92 483.617ZM196.548 378.902L197.548 377.17L194.548 375.438V378.902H196.548ZM196.548 543.856H194.548V544.392L194.816 544.856L196.548 543.856ZM318.113 754.414L319.113 756.146L320.845 755.146L319.845 753.414L318.113 754.414ZM311.614 758.166L309.882 759.166L310.882 760.898L312.614 759.898L311.614 758.166ZM193.135 552.954L194.867 551.954L193.063 548.83L191.369 552.015L193.135 552.954ZM80.6037 764.585L79.6647 766.35L81.4306 767.289L82.3696 765.524L80.6037 764.585ZM73.9778 761.061L72.212 760.122L71.273 761.888L73.0389 762.827L73.9778 761.061ZM189.043 544.666L190.809 545.605L191.043 545.164V544.666H189.043ZM189.043 377.124H191.043V373.58L188.01 375.412L189.043 377.124ZM10.9277 484.687L9.21564 485.721L10.2495 487.433L11.9616 486.399L10.9277 484.687ZM7.04834 478.263L6.01445 476.551L4.30241 477.585L5.3363 479.297L7.04834 478.263ZM189.043 368.357L190.077 370.069L191.043 369.486V368.357H189.043ZM189.043 348.237H191.043V345.377L188.357 346.358L189.043 348.237ZM164.789 346.995L163.413 348.447L163.413 348.447L164.789 346.995ZM173.899 299.617L175.55 300.745L177.161 298.385L174.392 297.679L173.899 299.617ZM224.675 156.347L223.838 158.163L226.675 159.47V156.347H224.675ZM224.675 36.8223H226.675V34.8223H224.675V36.8223ZM207.165 36.8223H205.165V38.8223H207.165V36.8223ZM207.165 4.30347L207.165 2.30347L205.165 2.30347V4.30347H207.165ZM181.953 301.211L182.234 299.231L181.041 299.061L180.334 300.037L181.953 301.211ZM170.066 323.03L168.178 322.372L168.178 322.372L170.066 323.03ZM169.949 341.547L168.574 342.999L168.574 342.999L169.949 341.547ZM188.432 340.425L189.192 342.275L189.192 342.275L188.432 340.425ZM189.043 340.17L189.825 342.011L191.043 341.494V340.17H189.043ZM189.043 301.976V299.976H187.043V301.976H189.043ZM196.548 301.976H198.548V299.976H196.548V301.976ZM196.548 336.405H194.548V339.862L197.545 338.139L196.548 336.405ZM221.497 316.296L220.045 314.92L220.045 314.92L221.497 316.296ZM243.562 282.635L245.442 283.317L242.23 281.143L243.562 282.635ZM549.862 241.334L548.448 242.748L551.862 246.162V241.334H549.862ZM549.862 36.8223H551.862V34.8223L549.862 34.8223L549.862 36.8223ZM345.351 36.8223L345.351 34.8223L340.522 34.8223L343.936 38.2365L345.351 36.8223ZM582.381 2.30347H549.862V6.30347H582.381V2.30347ZM584.381 769V4.30347H580.381V769H584.381ZM549.862 771H582.381V767H549.862V771ZM547.862 262.559V769H551.862V262.559H547.862ZM322.711 38.2365L548.448 263.974L551.276 261.145L325.539 35.4081L322.711 38.2365ZM232.179 38.8223H324.125V34.8223H232.179V38.8223ZM234.179 160.325V36.8223H230.179V160.325H234.179ZM271.09 225.682C271.09 197.226 255.909 172.319 233.213 158.613L231.145 162.037C252.691 175.049 267.09 198.685 267.09 225.682H271.09ZM255.155 273.031C265.154 259.882 271.09 243.472 271.09 225.682H267.09C267.09 242.568 261.459 258.133 251.971 270.609L255.155 273.031ZM228.398 322.831C244.782 305.533 254.88 286.088 255.561 271.916L251.565 271.724C250.951 284.518 241.585 303.092 225.494 320.081L228.398 322.831ZM197.456 346.722C207.558 341.575 218.41 333.376 228.398 322.831L225.494 320.081C215.77 330.347 205.276 338.248 195.64 343.158L197.456 346.722ZM198.548 370.237V344.94H194.548V370.237H198.548ZM382.672 475.386L197.548 368.505L195.548 371.969L380.672 478.85L382.672 475.386ZM379.652 484.617L383.404 478.118L379.94 476.118L376.188 482.617L379.652 484.617ZM195.548 380.634L376.92 485.349L378.92 481.885L197.548 377.17L195.548 380.634ZM198.548 543.856V378.902H194.548V543.856H198.548ZM319.845 753.414L198.28 542.856L194.816 544.856L316.381 755.414L319.845 753.414ZM312.614 759.898L319.113 756.146L317.113 752.682L310.614 756.434L312.614 759.898ZM191.403 553.954L309.882 759.166L313.346 757.166L194.867 551.954L191.403 553.954ZM82.3696 765.524L194.901 553.893L191.369 552.015L78.8378 763.646L82.3696 765.524ZM73.0389 762.827L79.6647 766.35L81.5427 762.819L74.9168 759.295L73.0389 762.827ZM187.278 543.727L72.212 760.122L75.7437 762L190.809 545.605L187.278 543.727ZM187.043 377.124V544.666H191.043V377.124H187.043ZM11.9616 486.399L190.077 378.836L188.01 375.412L9.89379 482.975L11.9616 486.399ZM5.3363 479.297L9.21564 485.721L12.6397 483.653L8.76038 477.23L5.3363 479.297ZM188.01 366.645L6.01445 476.551L8.08223 479.975L190.077 370.069L188.01 366.645ZM187.043 348.237V368.357H191.043V348.237H187.043ZM163.413 348.447C169.441 354.156 179.266 353.937 189.73 350.115L188.357 346.358C178.237 350.055 170.449 349.601 166.164 345.543L163.413 348.447ZM172.247 298.49C165.381 308.549 160.789 318.584 159.049 327.261C157.323 335.865 158.327 343.629 163.413 348.447L166.164 345.543C162.56 342.13 161.352 336.118 162.971 328.048C164.575 320.051 168.883 310.513 175.55 300.745L172.247 298.49ZM114.502 225.682C114.502 262.231 139.544 292.927 173.405 301.555L174.392 297.679C142.261 289.492 118.502 260.359 118.502 225.682H114.502ZM192.796 147.387C149.555 147.387 114.502 182.441 114.502 225.682H118.502C118.502 184.65 151.764 151.387 192.796 151.387V147.387ZM225.511 154.53C215.554 149.944 204.471 147.387 192.796 147.387V151.387C203.881 151.387 214.395 153.814 223.838 158.163L225.511 154.53ZM222.675 36.8223V156.347H226.675V36.8223H222.675ZM207.165 38.8223H224.675V34.8223H207.165V38.8223ZM205.165 4.30347V36.8223H209.165V4.30347H205.165ZM549.862 2.30347L207.165 2.30347L207.165 6.30347L549.862 6.30347L549.862 2.30347ZM180.334 300.037C174.694 307.812 170.573 315.506 168.178 322.372L171.955 323.689C174.196 317.264 178.11 309.914 183.572 302.386L180.334 300.037ZM168.178 322.372C166.201 328.041 165.59 332.46 165.806 335.815C166.021 339.145 167.069 341.573 168.574 342.999L171.325 340.095C170.784 339.582 169.972 338.251 169.798 335.557C169.626 332.887 170.096 329.017 171.955 323.689L168.178 322.372ZM168.574 342.999C170.079 344.424 172.56 345.338 175.897 345.372C179.258 345.407 183.639 344.557 189.192 342.275L187.672 338.575C182.452 340.72 178.614 341.4 175.938 341.373C173.239 341.345 171.866 340.607 171.325 340.095L168.574 342.999ZM189.192 342.275C189.402 342.189 189.613 342.101 189.825 342.011L188.262 338.329C188.064 338.413 187.868 338.495 187.672 338.575L189.192 342.275ZM187.043 301.976V340.17H191.043V301.976H187.043ZM192.796 299.976H189.043V303.976H192.796V299.976ZM196.548 299.976H192.796V303.976H196.548V299.976ZM198.548 336.405V301.976H194.548V336.405H198.548ZM197.545 338.139C205.774 333.409 214.61 326.475 222.95 317.671L220.045 314.92C211.944 323.474 203.408 330.155 195.551 334.671L197.545 338.139ZM222.95 317.671C233.939 306.069 241.655 293.76 245.442 283.317L241.681 281.954C238.12 291.776 230.742 303.627 220.045 314.92L222.95 317.671ZM192.796 303.976C212.799 303.976 231.055 296.472 244.893 284.128L242.23 281.143C229.096 292.858 211.78 299.976 192.796 299.976V303.976ZM181.671 303.191C185.306 303.708 189.02 303.976 192.796 303.976V299.976C189.209 299.976 185.683 299.722 182.234 299.231L181.671 303.191ZM551.862 241.334V36.8223H547.862V241.334H551.862ZM343.936 38.2365L548.448 242.748L551.276 239.92L346.765 35.4081L343.936 38.2365ZM549.862 34.8223L345.351 34.8223L345.351 38.8223L549.862 38.8223L549.862 34.8223Z" fill="#1F5E1E" mask="url(#path-1-outside-1_116_23)"/>
</g>
<defs>
<filter id="filter0_d_116_23" x="0.302246" y="0.303467" width="592.079" height="780.697" filterUnits="userSpaceOnUse" color-interpolation-filters="sRGB">
<feFlood flood-opacity="0" result="BackgroundImageFix"/>
<feColorMatrix in="SourceAlpha" type="matrix" values="0 0 0 0 0 0 0 0 0 0 0 0 0 0 0 0 0 0 127 0" result="hardAlpha"/>
<feOffset dx="2" dy="4"/>
<feGaussianBlur stdDeviation="3"/>
<feComposite in2="hardAlpha" operator="out"/>
<feColorMatrix type="matrix" values="0 0 0 0 0.0331466 0 0 0 0 0.112345 0 0 0 0 0.0648258 0 0 0 0.3 0"/>
<feBlend mode="normal" in2="BackgroundImageFix" result="effect1_dropShadow_116_23"/>
<feBlend mode="normal" in="SourceGraphic" in2="effect1_dropShadow_116_23" result="shape"/>
</filter>
</defs>
</svg>
