<svg width="100%" height="100%" viewBox="0 0 438 559" fill="none" xmlns="http://www.w3.org/2000/svg">
<path fill-rule="evenodd" clip-rule="evenodd" d="M154.436 37.7309V15L416.188 15L429 15V549.528H405.205V195.523L240.021 37.7309L172.74 37.7309V124.06C188.926 133.398 199.749 150.364 199.749 169.745C199.749 181.864 195.517 193.04 188.387 201.996C187.913 211.421 180.792 224.708 168.91 236.692C161.698 243.966 153.888 249.592 146.666 253.107V270.789L282.131 345.5L279.386 350.043L146.666 276.846V392.15L235.622 539.332L230.866 541.954L144.169 398.51L61.8241 546.441L56.9757 543.979L141.175 392.717V275.604L10.8387 350.791L8 346.301L141.175 269.476V255.411C133.644 258.039 127.199 257.957 123.426 254.544C117.067 248.79 120.19 235.285 130.093 221.426C105.948 215.549 88.0924 194.639 88.0924 169.745C88.0924 140.291 113.088 116.415 143.921 116.415C152.248 116.415 160.15 118.156 167.248 121.279V37.7309H154.436ZM135.986 222.54C131.924 227.889 128.984 233.147 127.288 237.792C124.482 245.48 125.706 249.381 127.203 250.735C128.7 252.09 132.844 253.046 140.727 249.951C140.876 249.893 141.025 249.834 141.175 249.773V223.075H143.835C141.171 223.071 138.551 222.889 135.986 222.54ZM146.666 247.141C152.552 243.91 158.908 239.151 164.923 233.084C172.857 225.083 178.38 216.639 181.069 209.556C171.22 217.948 158.237 223.054 144.006 223.075H146.666V247.141ZM255.553 37.7309L405.205 37.7309V180.686L255.553 37.7309Z" fill="#F7EBDB"/>
</svg>
