<svg width="100%" height="100%" viewBox="0 0 504 415" fill="none" xmlns="http://www.w3.org/2000/svg">
<g filter="url(#filter0_d_116_21)">
<mask id="path-1-outside-1_116_21" maskUnits="userSpaceOnUse" x="4.55051" y="104.453" width="276.053" height="300.802" fill="black">
<rect fill="white" x="4.55051" y="104.453" width="276.053" height="300.802"/>
<path fill-rule="evenodd" clip-rule="evenodd" d="M213.344 107L7 162.29L71.3018 402.267L277.646 346.977L213.344 107ZM203.362 124.289L24.2884 172.271L72.2711 351.345L251.345 303.363L203.362 124.289Z"/>
</mask>
<path fill-rule="evenodd" clip-rule="evenodd" d="M213.344 107L7 162.29L71.3018 402.267L277.646 346.977L213.344 107ZM203.362 124.289L24.2884 172.271L72.2711 351.345L251.345 303.363L203.362 124.289Z" fill="#F7EBDB"/>
<path d="M7 162.29L6.48236 160.358L4.55051 160.876L5.06815 162.807L7 162.29ZM213.344 107L215.276 106.482L214.758 104.55L212.827 105.068L213.344 107ZM71.3018 402.267L69.3699 402.785L69.8876 404.717L71.8194 404.199L71.3018 402.267ZM277.646 346.977L278.164 348.909L280.096 348.392L279.578 346.46L277.646 346.977ZM24.2884 172.271L23.7707 170.339L21.8389 170.857L22.3565 172.789L24.2884 172.271ZM203.362 124.289L205.294 123.771L204.777 121.839L202.845 122.357L203.362 124.289ZM72.2711 351.345L70.3393 351.863L70.8569 353.795L72.7887 353.277L72.2711 351.345ZM251.345 303.363L251.863 305.294L253.795 304.777L253.277 302.845L251.345 303.363ZM7.51764 164.222L213.862 108.932L212.827 105.068L6.48236 160.358L7.51764 164.222ZM73.2336 401.75L8.93185 161.772L5.06815 162.807L69.3699 402.785L73.2336 401.75ZM277.128 345.046L70.7841 400.335L71.8194 404.199L278.164 348.909L277.128 345.046ZM211.412 107.518L275.714 347.495L279.578 346.46L215.276 106.482L211.412 107.518ZM24.806 174.203L203.88 126.22L202.845 122.357L23.7707 170.339L24.806 174.203ZM74.203 350.828L26.2202 171.754L22.3565 172.789L70.3393 351.863L74.203 350.828ZM250.828 301.431L71.7535 349.414L72.7887 353.277L251.863 305.294L250.828 301.431ZM201.431 124.806L249.413 303.88L253.277 302.845L205.294 123.771L201.431 124.806Z" fill="#1F5E1E" mask="url(#path-1-outside-1_116_21)"/>
<mask id="path-3-outside-2_116_21" maskUnits="userSpaceOnUse" x="59.1816" y="211.088" width="147.191" height="121.028" fill="black">
<rect fill="white" x="59.1816" y="211.088" width="147.191" height="121.028"/>
<path fill-rule="evenodd" clip-rule="evenodd" d="M147.138 270.478L111.106 234.445L85.9049 328.495L179.955 303.294L201.816 297.437L152.996 248.616L147.138 270.478Z"/>
</mask>
<path fill-rule="evenodd" clip-rule="evenodd" d="M147.138 270.478L111.106 234.445L85.9049 328.495L179.955 303.294L201.816 297.437L152.996 248.616L147.138 270.478Z" fill="#F7EBDB"/>
<path d="M111.106 234.445L112.52 233.031L110.07 230.581L109.174 233.927L111.106 234.445ZM147.138 270.478L145.724 271.892L148.173 274.341L149.07 270.995L147.138 270.478ZM85.9049 328.495L83.9731 327.977L83.0765 331.323L86.4226 330.427L85.9049 328.495ZM179.955 303.294L180.473 305.226L180.473 305.226L179.955 303.294ZM201.816 297.437L202.334 299.368L205.68 298.472L203.231 296.022L201.816 297.437ZM152.996 248.616L154.41 247.202L151.961 244.752L151.064 248.098L152.996 248.616ZM109.691 235.859L145.724 271.892L148.552 269.063L112.52 233.031L109.691 235.859ZM87.8368 329.013L113.037 234.963L109.174 233.927L83.9731 327.977L87.8368 329.013ZM179.437 301.363L85.3873 326.563L86.4226 330.427L180.473 305.226L179.437 301.363ZM201.299 295.505L179.437 301.363L180.473 305.226L202.334 299.368L201.299 295.505ZM151.582 250.03L200.402 298.851L203.231 296.022L154.41 247.202L151.582 250.03ZM149.07 270.995L154.928 249.134L151.064 248.098L145.206 269.96L149.07 270.995Z" fill="#1F5E1E" mask="url(#path-3-outside-2_116_21)"/>
<circle cx="177.385" cy="204.237" r="21.9293" transform="rotate(-15 177.385 204.237)" fill="#F7EBDB" stroke="#1F5E1E" stroke-width="2"/>
</g>
<g filter="url(#filter1_d_116_21)">
<mask id="path-6-outside-3_116_21" maskUnits="userSpaceOnUse" x="210.308" y="2.47985" width="285.512" height="307.983" fill="black">
<rect fill="white" x="210.308" y="2.47985" width="285.512" height="307.983"/>
<path fill-rule="evenodd" clip-rule="evenodd" d="M492.941 71.0132L289.773 5L213 241.283L416.168 307.297L492.941 71.0132ZM475.153 80.0762L298.836 22.7871L241.547 199.105L417.864 256.394L475.153 80.0762Z"/>
</mask>
<path fill-rule="evenodd" clip-rule="evenodd" d="M492.941 71.0132L289.773 5L213 241.283L416.168 307.297L492.941 71.0132ZM475.153 80.0762L298.836 22.7871L241.547 199.105L417.864 256.394L475.153 80.0762Z" fill="#F7EBDB"/>
<path d="M289.773 5L290.391 3.09789L288.489 2.47985L287.871 4.38197L289.773 5ZM492.941 71.0132L494.843 71.6313L495.461 69.7292L493.559 69.1111L492.941 71.0132ZM213 241.283L211.098 240.665L210.48 242.567L212.382 243.185L213 241.283ZM416.168 307.297L415.55 309.199L417.452 309.817L418.07 307.915L416.168 307.297ZM298.836 22.7871L299.454 20.885L297.552 20.267L296.934 22.1691L298.836 22.7871ZM475.153 80.0762L477.055 80.6942L477.673 78.7921L475.771 78.174L475.153 80.0762ZM241.547 199.105L239.645 198.487L239.027 200.389L240.929 201.007L241.547 199.105ZM417.864 256.394L417.246 258.296L419.148 258.914L419.766 257.012L417.864 256.394ZM289.155 6.90211L492.323 72.9153L493.559 69.1111L290.391 3.09789L289.155 6.90211ZM214.902 241.901L291.675 5.61803L287.871 4.38197L211.098 240.665L214.902 241.901ZM416.786 305.394L213.618 239.381L212.382 243.185L415.55 309.199L416.786 305.394ZM491.039 70.3952L414.266 306.678L418.07 307.915L494.843 71.6313L491.039 70.3952ZM298.218 24.6893L474.535 81.9783L475.771 78.174L299.454 20.885L298.218 24.6893ZM243.449 199.723L300.738 23.4052L296.934 22.1691L239.645 198.487L243.449 199.723ZM418.482 254.491L242.165 197.202L240.929 201.007L417.246 258.296L418.482 254.491ZM473.251 79.4581L415.962 255.776L419.766 257.012L477.055 80.6942L473.251 79.4581Z" fill="#1F5E1E" mask="url(#path-6-outside-3_116_21)"/>
<mask id="path-8-outside-4_116_21" maskUnits="userSpaceOnUse" x="260.795" y="102.13" width="149.856" height="126.1" fill="black">
<rect fill="white" x="260.795" y="102.13" width="149.856" height="126.1"/>
<path fill-rule="evenodd" clip-rule="evenodd" d="M348.379 172.059L337.785 122.214L265.426 187.366L358.028 217.454L379.553 224.448L365.199 156.914L348.379 172.059Z"/>
</mask>
<path fill-rule="evenodd" clip-rule="evenodd" d="M348.379 172.059L337.785 122.214L265.426 187.366L358.028 217.454L379.553 224.448L365.199 156.914L348.379 172.059Z" fill="#F7EBDB"/>
<path d="M337.785 122.214L339.741 121.799L339.021 118.41L336.446 120.728L337.785 122.214ZM348.379 172.059L346.423 172.475L347.143 175.863L349.717 173.545L348.379 172.059ZM265.426 187.366L264.088 185.88L261.514 188.198L264.808 189.268L265.426 187.366ZM358.028 217.454L357.41 219.357L357.41 219.357L358.028 217.454ZM379.553 224.448L378.935 226.35L382.23 227.421L381.51 224.032L379.553 224.448ZM365.199 156.914L367.155 156.499L366.435 153.11L363.86 155.428L365.199 156.914ZM335.828 122.63L346.423 172.475L350.336 171.643L339.741 121.799L335.828 122.63ZM266.764 188.852L339.123 123.701L336.446 120.728L264.088 185.88L266.764 188.852ZM358.646 215.552L266.044 185.464L264.808 189.268L357.41 219.357L358.646 215.552ZM380.171 222.546L358.646 215.552L357.41 219.357L378.935 226.35L380.171 222.546ZM363.242 157.33L377.597 224.864L381.51 224.032L367.155 156.499L363.242 157.33ZM349.717 173.545L366.537 158.401L363.86 155.428L347.041 170.572L349.717 173.545Z" fill="#1F5E1E" mask="url(#path-8-outside-4_116_21)"/>
<circle cx="409.823" cy="132.978" r="21.9293" transform="rotate(18 409.823 132.978)" fill="#F7EBDB" stroke="#1F5E1E" stroke-width="2"/>
</g>
<defs>
<filter id="filter0_d_116_21" x="0.550293" y="102.551" width="287.545" height="312.166" filterUnits="userSpaceOnUse" color-interpolation-filters="sRGB">
<feFlood flood-opacity="0" result="BackgroundImageFix"/>
<feColorMatrix in="SourceAlpha" type="matrix" values="0 0 0 0 0 0 0 0 0 0 0 0 0 0 0 0 0 0 127 0" result="hardAlpha"/>
<feOffset dx="2" dy="4"/>
<feGaussianBlur stdDeviation="3"/>
<feComposite in2="hardAlpha" operator="out"/>
<feColorMatrix type="matrix" values="0 0 0 0 0.0331466 0 0 0 0 0.112345 0 0 0 0 0.0648258 0 0 0 0.3 0"/>
<feBlend mode="normal" in2="BackgroundImageFix" result="effect1_dropShadow_116_21"/>
<feBlend mode="normal" in="SourceGraphic" in2="effect1_dropShadow_116_21" result="shape"/>
</filter>
<filter id="filter1_d_116_21" x="206.479" y="0.479858" width="296.981" height="319.337" filterUnits="userSpaceOnUse" color-interpolation-filters="sRGB">
<feFlood flood-opacity="0" result="BackgroundImageFix"/>
<feColorMatrix in="SourceAlpha" type="matrix" values="0 0 0 0 0 0 0 0 0 0 0 0 0 0 0 0 0 0 127 0" result="hardAlpha"/>
<feOffset dx="2" dy="4"/>
<feGaussianBlur stdDeviation="3"/>
<feComposite in2="hardAlpha" operator="out"/>
<feColorMatrix type="matrix" values="0 0 0 0 0.0331466 0 0 0 0 0.112345 0 0 0 0 0.0648258 0 0 0 0.3 0"/>
<feBlend mode="normal" in2="BackgroundImageFix" result="effect1_dropShadow_116_21"/>
<feBlend mode="normal" in="SourceGraphic" in2="effect1_dropShadow_116_21" result="shape"/>
</filter>
</defs>
</svg>
