<svg width="100%" height="100%" viewBox="0 0 452 374" fill="none" xmlns="http://www.w3.org/2000/svg">
<path fill-rule="evenodd" clip-rule="evenodd" d="M193.563 99.7273L8 149.449L65.8257 365.257L251.388 315.536L193.563 99.7273ZM184.586 115.275L23.5474 158.425L66.6976 319.464L227.737 276.314L184.586 115.275Z" fill="#F7EBDB"/>
<path fill-rule="evenodd" clip-rule="evenodd" d="M134.024 246.741L101.621 214.337L78.9579 298.915L123.222 287.054L183.196 270.984L139.292 227.081L134.024 246.741Z" fill="#F7EBDB"/>
<circle cx="161.224" cy="187.171" r="18.8214" transform="rotate(-15 161.224 187.171)" fill="#F7EBDB"/>
<path fill-rule="evenodd" clip-rule="evenodd" d="M445 67.3648L262.294 8L193.253 220.486L375.959 279.851L445 67.3648ZM429.004 75.515L270.444 23.9957L218.925 182.556L377.485 234.075L429.004 75.515Z" fill="#F7EBDB"/>
<path fill-rule="evenodd" clip-rule="evenodd" d="M314.998 158.233L305.47 113.409L240.399 171.999L283.982 186.16L283.982 186.16L343.032 205.347L330.123 144.615L314.998 158.233Z" fill="#F7EBDB"/>
<circle cx="370.254" cy="123.089" r="18.8214" transform="rotate(18 370.254 123.089)" fill="#F7EBDB"/>
</svg>
