<svg width="100%" height="100%" viewBox="0 0 893 309" fill="none" xmlns="http://www.w3.org/2000/svg">
<g filter="url(#filter0_d_116_37)">
<path d="M15.2782 186.692H808.012C827.41 186.697 846.057 179.483 860.036 166.562C874.015 153.641 882.243 136.019 882.988 117.395V71.0608C883.004 70.7669 883.004 70.4724 882.988 70.1788C881.542 52.1471 873.054 35.3072 859.23 23.0343C845.405 10.7615 827.262 3.96251 808.438 4.00016H529.157C527.941 4.00016 526.734 4.23073 525.606 4.6787C524.482 5.12668 523.459 5.78328 522.597 6.61103C521.735 7.43879 521.053 8.42145 520.587 9.50299C520.118 10.5845 519.879 11.7436 519.879 12.9143V67.5329C519.879 68.7034 520.118 69.8626 520.587 70.9439C521.053 72.0256 521.735 73.0083 522.597 73.8361C523.459 74.6639 524.482 75.3203 525.606 75.7682C526.734 76.2165 527.941 76.447 529.157 76.447H777.36H779.359H782.048C787.264 76.447 792.27 78.438 795.958 81.9823C799.646 85.5265 801.718 90.3338 801.718 95.3462C801.718 100.359 799.646 105.166 795.958 108.71C792.27 112.254 787.264 114.245 782.048 114.245H780.507H777.229H15.2782C12.8176 114.245 10.4578 115.184 8.71789 116.856C6.97799 118.528 6.00052 120.795 6.00052 123.159V177.778C6.00052 180.142 6.97799 182.409 8.71789 184.081C10.4578 185.753 12.8176 186.692 15.2782 186.692ZM15.2782 76.447H359.831C362.293 76.447 364.653 75.5077 366.391 73.8361C368.132 72.1642 369.108 69.8969 369.108 67.5329V12.9143C369.108 10.5501 368.132 8.28277 366.391 6.61103C364.653 4.93932 362.293 4.00016 359.831 4.00016H15.2782C12.8176 4.00016 10.4578 4.93932 8.71789 6.61103C6.97799 8.28277 6.00052 10.5501 6.00052 12.9143V67.5329C6.00052 69.8969 6.97799 72.1642 8.71789 73.8361C10.4578 75.5077 12.8176 76.447 15.2782 76.447ZM877.48 205.938C877.231 205.212 876.798 204.556 876.224 204.025C875.651 203.495 874.952 203.106 874.189 202.893C873.425 202.679 872.618 202.646 871.838 202.798C871.058 202.95 870.327 203.281 869.71 203.764C865.94 206.662 862.432 209.339 858.564 211.954C845.916 219.609 831.406 223.953 816.47 224.553H524.698C523.394 224.553 522.144 225.051 521.22 225.937C520.299 226.823 519.781 228.025 519.781 229.278V292.275C519.781 293.528 520.299 294.73 521.22 295.616C522.144 296.502 523.394 297 524.698 297H804.406C823.237 297.006 841.382 290.206 855.233 277.952C869.088 265.697 877.637 248.884 879.185 230.853C879.185 230.318 879.185 229.121 879.185 227.703C879.345 220.791 878.795 213.88 877.546 207.072C877.624 206.698 877.637 206.314 877.578 205.938H877.48ZM359.831 224.49H15.2782C12.8345 224.49 10.4895 225.416 8.75242 227.068C7.01532 228.719 6.02642 230.962 6.00052 233.31V287.897C5.98754 289.077 6.21769 290.248 6.67772 291.342C7.13775 292.436 7.81856 293.432 8.68094 294.272C9.54332 295.113 10.5702 295.781 11.7025 296.238C12.8347 296.695 14.05 296.933 15.2782 296.937H359.831C362.296 296.928 364.653 295.982 366.394 294.306C368.132 292.629 369.108 290.358 369.108 287.991V233.31C369.082 230.962 368.095 228.719 366.358 227.068C364.62 225.416 362.276 224.49 359.831 224.49Z" fill="#F7EBDB"/>
<path d="M883.987 117.435L883.988 117.415V117.395V71.0883C884.005 70.7667 884.004 70.4444 883.986 70.1231L883.985 70.111L883.984 70.0989C882.518 51.8037 873.906 34.7265 859.893 22.2865C845.882 9.84771 827.502 2.96227 808.437 3.00016H529.157C527.814 3.00016 526.483 3.25459 525.237 3.74934L525.236 3.74971C523.994 4.24477 522.861 4.97131 521.904 5.88966C520.947 6.80897 520.188 7.90218 519.669 9.10763C519.146 10.3141 518.879 11.6078 518.879 12.9143V67.5329C518.879 68.8401 519.146 70.1346 519.67 71.3417C520.189 72.5463 520.947 73.6387 521.904 74.5575C522.861 75.4759 523.994 76.2023 525.236 76.6972L525.237 76.6975C526.483 77.1926 527.814 77.447 529.157 77.447H777.36H779.359H782.048C787.011 77.447 791.767 79.3421 795.265 82.7033C798.761 86.0633 800.718 90.6121 800.718 95.3462C800.718 100.08 798.761 104.629 795.265 107.989C791.767 111.35 787.011 113.245 782.048 113.245H780.507H777.229H15.2782C12.5651 113.245 9.95532 114.28 8.02507 116.135L8.02501 116.135C6.09348 117.991 5.00052 120.517 5.00052 123.159V177.778C5.00052 180.42 6.09349 182.946 8.02501 184.802L8.02507 184.802C9.95526 186.657 12.565 187.692 15.2782 187.692H808.012C827.656 187.697 846.547 180.391 860.715 167.296C874.883 154.2 883.232 136.33 883.987 117.435ZM8.02505 5.88994L8.02505 5.88994C6.09347 7.74584 5.00052 10.2717 5.00052 12.9143V67.5329C5.00052 70.1753 6.09349 72.7011 8.02501 74.5572L8.02507 74.5572C9.95526 76.4117 12.565 77.447 15.2782 77.447H359.831C362.545 77.447 365.155 76.4121 367.083 74.5573C369.016 72.7011 370.108 70.1752 370.108 67.5329V12.9143C370.108 10.2718 369.016 7.74582 367.083 5.88976C365.155 4.03495 362.545 3.00016 359.831 3.00016H15.2782C12.565 3.00016 9.95527 4.03535 8.02505 5.88994ZM880.181 230.939L880.185 230.896V230.853V230.85V230.847V230.844V230.84V230.837V230.834V230.831V230.827V230.824V230.821V230.818V230.814V230.811V230.808V230.804V230.801V230.798V230.794V230.791V230.787V230.784V230.78V230.777V230.773V230.77V230.766V230.763V230.759V230.756V230.752V230.749V230.745V230.741V230.738V230.734V230.73V230.727V230.723V230.719V230.716V230.712V230.708V230.704V230.701V230.697V230.693V230.689V230.685V230.681V230.678V230.674V230.67V230.666V230.662V230.658V230.654V230.65V230.646V230.642V230.638V230.634V230.63V230.626V230.622V230.618V230.614V230.61V230.606V230.602V230.597V230.593V230.589V230.585V230.581V230.577V230.572V230.568V230.564V230.56V230.555V230.551V230.547V230.542V230.538V230.534V230.529V230.525V230.521V230.516V230.512V230.507V230.503V230.498V230.494V230.489V230.485V230.48V230.476V230.471V230.467V230.462V230.458V230.453V230.449V230.444V230.439V230.435V230.43V230.425V230.421V230.416V230.411V230.407V230.402V230.397V230.392V230.388V230.383V230.378V230.373V230.368V230.364V230.359V230.354V230.349V230.344V230.339V230.334V230.329V230.324V230.319V230.315V230.31V230.305V230.3V230.295V230.29V230.285V230.279V230.274V230.269V230.264V230.259V230.254V230.249V230.244V230.239V230.233V230.228V230.223V230.218V230.213V230.208V230.202V230.197V230.192V230.187V230.181V230.176V230.171V230.165V230.16V230.155V230.149V230.144V230.139V230.133V230.128V230.122V230.117V230.112V230.106V230.101V230.095V230.09V230.084V230.079V230.073V230.068V230.062V230.057V230.051V230.045V230.04V230.034V230.029V230.023V230.017V230.012V230.006V230V229.995V229.989V229.983V229.978V229.972V229.966V229.961V229.955V229.949V229.943V229.937V229.932V229.926V229.92V229.914V229.908V229.902V229.897V229.891V229.885V229.879V229.873V229.867V229.861V229.855V229.849V229.843V229.837V229.831V229.825V229.819V229.813V229.807V229.801V229.795V229.789V229.783V229.777V229.771V229.765V229.759V229.753V229.746V229.74V229.734V229.728V229.722V229.716V229.709V229.703V229.697V229.691V229.684V229.678V229.672V229.666V229.659V229.653V229.647V229.641V229.634V229.628V229.622V229.615V229.609V229.602V229.596V229.59V229.583V229.577V229.57V229.564V229.558V229.551V229.545V229.538V229.532V229.525V229.519V229.512V229.506V229.499V229.493V229.486V229.479V229.473V229.466V229.46V229.453V229.447V229.44V229.433V229.427V229.42V229.413V229.407V229.4V229.393V229.387V229.38V229.373V229.366V229.36V229.353V229.346V229.339V229.333V229.326V229.319V229.312V229.306V229.299V229.292V229.285V229.278V229.271V229.265V229.258V229.251V229.244V229.237V229.23V229.223V229.216V229.209V229.202V229.195V229.188V229.182V229.175V229.168V229.161V229.154V229.147V229.139V229.132V229.125V229.118V229.111V229.104V229.097V229.09V229.083V229.076V229.069V229.062V229.055V229.047V229.04V229.033V229.026V229.019V229.012V229.004V228.997V228.99V228.983V228.976V228.968V228.961V228.954V228.947V228.939V228.932V228.925V228.918V228.91V228.903V228.896V228.888V228.881V228.874V228.866V228.859V228.852V228.844V228.837V228.83V228.822V228.815V228.807V228.8V228.793V228.785V228.778V228.77V228.763V228.755V228.748V228.74V228.733V228.725V228.718V228.71V228.703V228.695V228.688V228.68V228.673V228.665V228.658V228.65V228.643V228.635V228.627V228.62V228.612V228.605V228.597V228.589V228.582V228.574V228.567V228.559V228.551V228.544V228.536V228.528V228.521V228.513V228.505V228.497V228.49V228.482V228.474V228.467V228.459V228.451V228.443V228.436V228.428V228.42V228.412V228.404V228.397V228.389V228.381V228.373V228.365V228.358V228.35V228.342V228.334V228.326V228.318V228.31V228.303V228.295V228.287V228.279V228.271V228.263V228.255V228.247V228.239V228.231V228.223V228.216V228.208V228.2V228.192V228.184V228.176V228.168V228.16V228.152V228.144V228.136V228.128V228.12V228.112V228.104V228.096V228.088V228.08V228.071V228.063V228.055V228.047V228.039V228.031V228.023V228.015V228.007V227.999V227.991V227.982V227.974V227.966V227.958V227.95V227.942V227.934V227.925V227.917V227.909V227.901V227.893V227.885V227.876V227.868V227.86V227.852V227.844V227.835V227.827V227.819V227.811V227.802V227.794V227.786V227.778V227.769V227.761V227.753V227.745V227.736V227.728V227.72V227.716C880.345 220.8 879.8 213.886 878.562 207.072C878.63 206.649 878.634 206.215 878.566 205.783L878.434 204.938H878.143C877.835 204.321 877.414 203.763 876.903 203.291C876.211 202.651 875.372 202.185 874.458 201.93C873.544 201.674 872.58 201.635 871.647 201.817C870.718 201.997 869.843 202.392 869.101 202.971C865.337 205.865 861.857 208.52 858.025 211.111C845.534 218.666 831.204 222.957 816.45 223.553H524.698C523.14 223.553 521.642 224.147 520.528 225.215L520.527 225.216C519.414 226.286 518.781 227.747 518.781 229.278V292.275C518.781 293.807 519.414 295.267 520.527 296.337L520.528 296.338C521.642 297.406 523.14 298 524.698 298H804.406C823.476 298.006 841.858 291.12 855.896 278.701C869.938 266.28 878.611 249.232 880.181 230.939ZM5.00058 233.299H5.00052V233.31V287.892C4.98682 289.207 5.24388 290.512 5.75587 291.729C6.2686 292.949 7.02626 294.056 7.98302 294.988C8.93982 295.921 10.0769 296.66 11.3279 297.165L11.3282 297.165C12.5789 297.67 13.92 297.932 15.2749 297.937H15.2782H359.831H359.834C362.552 297.928 365.158 296.885 367.088 295.026L367.088 295.025C369.017 293.165 370.108 290.636 370.108 287.991L370.109 233.31L370.108 233.299C370.079 230.675 368.976 228.176 367.047 226.343C365.119 224.511 362.527 223.49 359.831 223.49H15.2782C12.5838 223.49 9.99043 224.511 8.0634 226.343C6.13512 228.176 5.02954 230.675 5.00058 233.299Z" stroke="#1F5E1E" stroke-width="2"/>
</g>
<defs>
<filter id="filter0_d_116_37" x="0" y="0" width="893" height="309" filterUnits="userSpaceOnUse" color-interpolation-filters="sRGB">
<feFlood flood-opacity="0" result="BackgroundImageFix"/>
<feColorMatrix in="SourceAlpha" type="matrix" values="0 0 0 0 0 0 0 0 0 0 0 0 0 0 0 0 0 0 127 0" result="hardAlpha"/>
<feOffset dx="2" dy="4"/>
<feGaussianBlur stdDeviation="3"/>
<feComposite in2="hardAlpha" operator="out"/>
<feColorMatrix type="matrix" values="0 0 0 0 0.0331466 0 0 0 0 0.112345 0 0 0 0 0.0648258 0 0 0 0.3 0"/>
<feBlend mode="normal" in2="BackgroundImageFix" result="effect1_dropShadow_116_37"/>
<feBlend mode="normal" in="SourceGraphic" in2="effect1_dropShadow_116_37" result="shape"/>
</filter>
</defs>
</svg>
