<svg width="100%" height="100%" viewBox="0 0 679 242" fill="none" xmlns="http://www.w3.org/2000/svg">
<path d="M16.9719 148.798H612.652C627.228 148.802 641.24 143.361 651.744 133.615C662.248 123.869 668.432 110.577 668.991 96.5301V61.5817C669.003 61.36 669.003 61.1379 668.991 60.9164C667.904 47.3158 661.527 34.614 651.138 25.357C640.75 16.1 627.117 10.9717 612.972 11.0001H403.113C402.199 11.0001 401.293 11.174 400.445 11.5119C399.6 11.8498 398.832 12.3451 398.184 12.9694C397.536 13.5938 397.024 14.335 396.674 15.1507C396.322 15.9665 396.142 16.8408 396.142 17.7237V58.9207C396.142 59.8036 396.322 60.6779 396.674 61.4935C397.024 62.3094 397.536 63.0506 398.184 63.675C398.832 64.2994 399.6 64.7945 400.445 65.1323C401.293 65.4704 402.199 65.6443 403.113 65.6443H589.619H591.122H593.142C597.061 65.6443 600.823 67.1461 603.594 69.8194C606.366 72.4927 607.922 76.1187 607.922 79.8993C607.922 83.68 606.366 87.3057 603.594 89.979C600.823 92.6523 597.061 94.1543 593.142 94.1543H591.984H589.521H16.9719C15.1229 94.1543 13.3497 94.8625 12.0423 96.1234C10.7349 97.3845 10.0004 99.0946 10.0004 100.878V142.075C10.0004 143.858 10.7349 145.568 12.0423 146.829C13.3497 148.09 15.1229 148.798 16.9719 148.798ZM16.9719 65.6443H275.877C277.727 65.6443 279.501 64.9359 280.807 63.675C282.115 62.4139 282.849 60.7038 282.849 58.9207V17.7237C282.849 15.9405 282.115 14.2303 280.807 12.9694C279.501 11.7085 277.727 11.0001 275.877 11.0001H16.9719C15.1229 11.0001 13.3497 11.7085 12.0423 12.9694C10.7349 14.2303 10.0004 15.9405 10.0004 17.7237V58.9207C10.0004 60.7038 10.7349 62.4139 12.0423 63.675C13.3497 64.9359 15.1229 65.6443 16.9719 65.6443ZM664.852 163.315C664.665 162.767 664.34 162.272 663.909 161.872C663.478 161.472 662.953 161.179 662.379 161.018C661.805 160.857 661.199 160.832 660.613 160.947C660.026 161.061 659.477 161.311 659.014 161.675C656.181 163.861 653.545 165.881 650.638 167.853C641.134 173.627 630.231 176.903 619.008 177.356H399.763C398.783 177.356 397.844 177.731 397.149 178.4C396.457 179.068 396.068 179.974 396.068 180.92V228.436C396.068 229.381 396.457 230.288 397.149 230.956C397.844 231.624 398.783 232 399.763 232H609.942C624.092 232.004 637.727 226.876 648.135 217.632C658.546 208.389 664.97 195.708 666.133 182.108C666.133 181.704 666.133 180.801 666.133 179.732C666.254 174.518 665.84 169.306 664.901 164.17C664.961 163.888 664.97 163.599 664.926 163.315H664.852ZM275.877 177.308H16.9719C15.1356 177.308 13.3735 178.007 12.0682 179.252C10.7629 180.498 10.0199 182.19 10.0004 183.961V225.134C9.99064 226.024 10.1636 226.907 10.5093 227.732C10.8549 228.558 11.3665 229.309 12.0145 229.943C12.6625 230.576 13.4342 231.08 14.285 231.425C15.1358 231.77 16.049 231.949 16.9719 231.952H275.877C277.73 231.946 279.501 231.232 280.809 229.968C282.115 228.703 282.849 226.99 282.849 225.205V183.961C282.829 182.19 282.088 180.498 280.782 179.252C279.476 178.007 277.715 177.308 275.877 177.308Z" fill="#F7EBDB"/>
</svg>
