<svg width="100%" height="100%" viewBox="0 0 414 380" fill="none" xmlns="http://www.w3.org/2000/svg">
<g filter="url(#filter0_d_28_27)">
<mask id="path-1-outside-1_28_27" maskUnits="userSpaceOnUse" x="4.30469" y="2.88611" width="402" height="367" fill="black">
<rect fill="white" x="4.30469" y="2.88611" width="402" height="367"/>
<path d="M45.4782 173.982C32.0642 173.982 22.1818 166.834 15.831 152.538C9.48012 138.242 6.30469 117.84 6.30469 91.3326C6.30469 64.6764 9.48012 43.6046 15.831 28.1172C22.1818 12.6298 32.0642 4.88611 45.4782 4.88611C64.234 4.88611 76.7873 21.0436 83.1382 53.3587C77.7963 57.9751 71.5345 64.8998 64.3527 74.1327C62.6314 65.7933 59.9012 59.6132 56.1619 55.5925C52.4819 51.5717 48.713 49.5613 44.855 49.5613C39.157 49.5613 34.9132 53.3587 32.1236 60.9535C29.334 68.3993 27.9391 77.6322 27.9391 88.6521C27.9391 100.565 29.423 110.32 32.3907 117.914C35.4177 125.36 40.0176 129.083 46.1904 129.083C51.1168 129.083 55.0342 127.073 57.9425 123.052C60.8508 118.882 62.9876 112.33 64.3527 103.395C69.2197 109.947 75.4519 117.319 83.0492 125.509C80.0815 143.528 75.1254 156.112 68.181 163.26C61.2366 170.408 53.669 173.982 45.4782 173.982Z"/>
<path d="M127.216 173.982C113.624 173.982 103.623 166.61 97.2127 151.868C90.8025 136.976 87.5974 116.127 87.5974 89.3222C87.5974 62.8149 90.7728 42.1154 97.1236 27.2237C103.534 12.332 113.565 4.88611 127.216 4.88611C140.927 4.88611 150.958 12.332 157.308 27.2237C163.719 42.1154 166.924 62.8149 166.924 89.3222C166.924 116.276 163.748 137.125 157.397 151.868C151.047 166.61 140.986 173.982 127.216 173.982ZM127.216 128.413C133.804 128.413 138.553 125.286 141.461 119.031C144.369 112.628 145.823 102.725 145.823 89.3222C145.823 76.2175 144.369 66.4634 141.461 60.06C138.553 53.6565 133.804 50.4548 127.216 50.4548C120.687 50.4548 115.968 53.6565 113.06 60.06C110.152 66.4634 108.698 76.2175 108.698 89.3222C108.698 102.576 110.152 112.404 113.06 118.808C115.968 125.211 120.687 128.413 127.216 128.413Z"/>
<path d="M255.525 9.57701L262.469 171.748H239.41L237.986 56.0392L229.082 171.748H205.756L196.675 56.9327L195.34 171.748H172.281L179.225 9.57701L209.496 9.57701L217.241 115.234L224.008 9.57701H255.525Z"/>
<path d="M321.298 54.0288C314.235 53.1353 309.012 52.6141 305.629 52.4652V128.86C309.071 128.711 314.294 128.19 321.298 127.296V171.748H269.571V127.296C276.397 128.19 281.59 128.711 285.152 128.86V52.4652C281.59 52.6141 276.397 53.1353 269.571 54.0288V9.57701L321.298 9.57701V54.0288Z"/>
<path d="M403.129 9.80038C402.714 34.9674 402.506 61.9214 402.506 90.6625C402.506 119.552 402.714 146.581 403.129 171.748H371.256L349.711 49.7847L351.313 171.748H328.432C328.907 142.858 329.145 115.83 329.145 90.6625C329.145 65.6444 328.907 38.6903 328.432 9.80038L361.196 9.80038L382.83 135.114L381.317 9.80038H403.129Z"/>
<path d="M42.9853 272.863H81.0015V365.34H65.332L63.4624 325.803C61.6818 339.95 58.5064 350.449 53.9361 357.299C49.3659 364.149 43.7866 367.574 37.1983 367.574C31.2036 367.574 25.8618 364.224 21.1728 357.522C16.5432 350.821 12.893 341.216 10.222 328.707C7.61047 316.198 6.30469 301.604 6.30469 284.925C6.30469 258.269 9.48012 237.197 15.831 221.71C22.1818 206.222 32.0642 198.479 45.4782 198.479C53.1348 198.479 59.8715 201.606 65.6882 207.86C71.5642 214.115 76.5499 223.795 80.6453 236.899C77.9744 240.324 72.7513 247.175 64.9759 257.45L62.7502 260.577C60.4354 254.769 57.7348 250.451 54.6484 247.621C51.562 244.643 48.2975 243.154 44.855 243.154C39.157 243.154 34.9132 246.951 32.1236 254.546C29.334 261.992 27.9391 271.225 27.9391 282.245C27.9391 294.158 29.423 303.763 32.3907 311.06C35.4177 318.357 40.0176 322.006 46.1904 322.006C48.8614 322.006 51.4433 321.038 53.9361 319.102C56.4883 317.166 58.6251 313.815 60.3463 309.05H42.9853V272.863Z"/>
<path d="M84.5578 346.13C86.5758 338.535 88.2377 331.462 89.5435 324.909C90.9087 318.357 92.2144 310.762 93.4609 302.125C97.675 308.231 102.572 312.996 108.151 316.421C113.73 319.846 118.924 321.559 123.731 321.559C128.658 321.559 132.13 320.516 134.148 318.432C136.166 316.198 137.175 313.815 137.175 311.283C137.175 302.2 131.655 297.658 120.615 297.658C108.507 297.658 99.7227 294.53 94.2621 288.276C88.8016 281.872 86.0713 271.597 86.0713 257.45C86.0713 237.346 89.3951 222.529 96.0428 212.998C102.69 203.467 111.326 198.702 121.951 198.702C128.123 198.702 134.445 200.712 140.914 204.733C147.443 208.605 153.319 213.966 158.542 220.816C156.821 230.645 155.011 242.633 153.111 256.78C152.755 259.758 152.459 261.992 152.221 263.481C149.194 257.375 144.624 252.312 138.51 248.291C132.397 244.122 126.996 242.037 122.307 242.037C116.668 242.037 112.87 243.005 110.911 244.941C108.952 246.728 107.973 249.408 107.973 252.982C107.973 256.556 109.308 259.46 111.979 261.694C114.71 263.779 118.627 264.821 123.731 264.821C136.314 264.821 145.455 268.47 151.153 275.767C156.851 282.915 159.7 293.935 159.7 308.826C159.7 329.675 156.673 344.715 150.619 353.948C144.564 363.032 135.394 367.574 123.108 367.574C116.52 367.574 109.813 365.787 102.987 362.213C96.1615 358.49 90.0184 353.129 84.5578 346.13Z"/>
<path d="M202.864 367.574C189.272 367.574 179.271 360.203 172.861 345.46C166.451 330.568 163.246 309.72 163.246 282.915C163.246 256.407 166.421 235.708 172.772 220.816C179.182 205.924 189.213 198.479 202.864 198.479C216.575 198.479 226.606 205.924 232.957 220.816C239.367 235.708 242.572 256.407 242.572 282.915C242.572 309.869 239.397 330.717 233.046 345.46C226.695 360.203 216.634 367.574 202.864 367.574ZM202.864 322.006C209.453 322.006 214.201 318.878 217.109 312.624C220.018 306.22 221.472 296.317 221.472 282.915C221.472 269.81 220.018 260.056 217.109 253.652C214.201 247.249 209.453 244.047 202.864 244.047C196.335 244.047 191.617 247.249 188.708 253.652C185.8 260.056 184.346 269.81 184.346 282.915C184.346 296.168 185.8 305.997 188.708 312.4C191.617 318.804 196.335 322.006 202.864 322.006Z"/>
<path d="M285.725 367.574C272.133 367.574 262.132 360.203 255.722 345.46C249.312 330.568 246.107 309.72 246.107 282.915C246.107 256.407 249.282 235.708 255.633 220.816C262.043 205.924 272.074 198.479 285.725 198.479C299.436 198.479 309.467 205.924 315.818 220.816C322.228 235.708 325.433 256.407 325.433 282.915C325.433 309.869 322.258 330.717 315.907 345.46C309.556 360.203 299.496 367.574 285.725 367.574ZM285.725 322.006C292.314 322.006 297.062 318.878 299.97 312.624C302.879 306.22 304.333 296.317 304.333 282.915C304.333 269.81 302.879 260.056 299.97 253.652C297.062 247.249 292.314 244.047 285.725 244.047C279.197 244.047 274.478 247.249 271.57 253.652C268.661 260.056 267.207 269.81 267.207 282.915C267.207 296.168 268.661 305.997 271.57 312.4C274.478 318.804 279.197 322.006 285.725 322.006Z"/>
<path d="M403.665 203.393C403.249 228.56 403.041 255.514 403.041 284.255C403.041 313.145 403.249 340.173 403.665 365.34H371.792L350.246 243.377L351.849 365.34H328.968C329.443 336.451 329.68 309.422 329.68 284.255C329.68 259.237 329.443 232.283 328.968 203.393H361.731L383.366 328.707L381.852 203.393H403.665Z"/>
</mask>
<path d="M45.4782 173.982C32.0642 173.982 22.1818 166.834 15.831 152.538C9.48012 138.242 6.30469 117.84 6.30469 91.3326C6.30469 64.6764 9.48012 43.6046 15.831 28.1172C22.1818 12.6298 32.0642 4.88611 45.4782 4.88611C64.234 4.88611 76.7873 21.0436 83.1382 53.3587C77.7963 57.9751 71.5345 64.8998 64.3527 74.1327C62.6314 65.7933 59.9012 59.6132 56.1619 55.5925C52.4819 51.5717 48.713 49.5613 44.855 49.5613C39.157 49.5613 34.9132 53.3587 32.1236 60.9535C29.334 68.3993 27.9391 77.6322 27.9391 88.6521C27.9391 100.565 29.423 110.32 32.3907 117.914C35.4177 125.36 40.0176 129.083 46.1904 129.083C51.1168 129.083 55.0342 127.073 57.9425 123.052C60.8508 118.882 62.9876 112.33 64.3527 103.395C69.2197 109.947 75.4519 117.319 83.0492 125.509C80.0815 143.528 75.1254 156.112 68.181 163.26C61.2366 170.408 53.669 173.982 45.4782 173.982Z" fill="#F7EBDB"/>
<path d="M127.216 173.982C113.624 173.982 103.623 166.61 97.2127 151.868C90.8025 136.976 87.5974 116.127 87.5974 89.3222C87.5974 62.8149 90.7728 42.1154 97.1236 27.2237C103.534 12.332 113.565 4.88611 127.216 4.88611C140.927 4.88611 150.958 12.332 157.308 27.2237C163.719 42.1154 166.924 62.8149 166.924 89.3222C166.924 116.276 163.748 137.125 157.397 151.868C151.047 166.61 140.986 173.982 127.216 173.982ZM127.216 128.413C133.804 128.413 138.553 125.286 141.461 119.031C144.369 112.628 145.823 102.725 145.823 89.3222C145.823 76.2175 144.369 66.4634 141.461 60.06C138.553 53.6565 133.804 50.4548 127.216 50.4548C120.687 50.4548 115.968 53.6565 113.06 60.06C110.152 66.4634 108.698 76.2175 108.698 89.3222C108.698 102.576 110.152 112.404 113.06 118.808C115.968 125.211 120.687 128.413 127.216 128.413Z" fill="#F7EBDB"/>
<path d="M255.525 9.57701L262.469 171.748H239.41L237.986 56.0392L229.082 171.748H205.756L196.675 56.9327L195.34 171.748H172.281L179.225 9.57701L209.496 9.57701L217.241 115.234L224.008 9.57701H255.525Z" fill="#F7EBDB"/>
<path d="M321.298 54.0288C314.235 53.1353 309.012 52.6141 305.629 52.4652V128.86C309.071 128.711 314.294 128.19 321.298 127.296V171.748H269.571V127.296C276.397 128.19 281.59 128.711 285.152 128.86V52.4652C281.59 52.6141 276.397 53.1353 269.571 54.0288V9.57701L321.298 9.57701V54.0288Z" fill="#F7EBDB"/>
<path d="M403.129 9.80038C402.714 34.9674 402.506 61.9214 402.506 90.6625C402.506 119.552 402.714 146.581 403.129 171.748H371.256L349.711 49.7847L351.313 171.748H328.432C328.907 142.858 329.145 115.83 329.145 90.6625C329.145 65.6444 328.907 38.6903 328.432 9.80038L361.196 9.80038L382.83 135.114L381.317 9.80038H403.129Z" fill="#F7EBDB"/>
<path d="M42.9853 272.863H81.0015V365.34H65.332L63.4624 325.803C61.6818 339.95 58.5064 350.449 53.9361 357.299C49.3659 364.149 43.7866 367.574 37.1983 367.574C31.2036 367.574 25.8618 364.224 21.1728 357.522C16.5432 350.821 12.893 341.216 10.222 328.707C7.61047 316.198 6.30469 301.604 6.30469 284.925C6.30469 258.269 9.48012 237.197 15.831 221.71C22.1818 206.222 32.0642 198.479 45.4782 198.479C53.1348 198.479 59.8715 201.606 65.6882 207.86C71.5642 214.115 76.5499 223.795 80.6453 236.899C77.9744 240.324 72.7513 247.175 64.9759 257.45L62.7502 260.577C60.4354 254.769 57.7348 250.451 54.6484 247.621C51.562 244.643 48.2975 243.154 44.855 243.154C39.157 243.154 34.9132 246.951 32.1236 254.546C29.334 261.992 27.9391 271.225 27.9391 282.245C27.9391 294.158 29.423 303.763 32.3907 311.06C35.4177 318.357 40.0176 322.006 46.1904 322.006C48.8614 322.006 51.4433 321.038 53.9361 319.102C56.4883 317.166 58.6251 313.815 60.3463 309.05H42.9853V272.863Z" fill="#F7EBDB"/>
<path d="M84.5578 346.13C86.5758 338.535 88.2377 331.462 89.5435 324.909C90.9087 318.357 92.2144 310.762 93.4609 302.125C97.675 308.231 102.572 312.996 108.151 316.421C113.73 319.846 118.924 321.559 123.731 321.559C128.658 321.559 132.13 320.516 134.148 318.432C136.166 316.198 137.175 313.815 137.175 311.283C137.175 302.2 131.655 297.658 120.615 297.658C108.507 297.658 99.7227 294.53 94.2621 288.276C88.8016 281.872 86.0713 271.597 86.0713 257.45C86.0713 237.346 89.3951 222.529 96.0428 212.998C102.69 203.467 111.326 198.702 121.951 198.702C128.123 198.702 134.445 200.712 140.914 204.733C147.443 208.605 153.319 213.966 158.542 220.816C156.821 230.645 155.011 242.633 153.111 256.78C152.755 259.758 152.459 261.992 152.221 263.481C149.194 257.375 144.624 252.312 138.51 248.291C132.397 244.122 126.996 242.037 122.307 242.037C116.668 242.037 112.87 243.005 110.911 244.941C108.952 246.728 107.973 249.408 107.973 252.982C107.973 256.556 109.308 259.46 111.979 261.694C114.71 263.779 118.627 264.821 123.731 264.821C136.314 264.821 145.455 268.47 151.153 275.767C156.851 282.915 159.7 293.935 159.7 308.826C159.7 329.675 156.673 344.715 150.619 353.948C144.564 363.032 135.394 367.574 123.108 367.574C116.52 367.574 109.813 365.787 102.987 362.213C96.1615 358.49 90.0184 353.129 84.5578 346.13Z" fill="#F7EBDB"/>
<path d="M202.864 367.574C189.272 367.574 179.271 360.203 172.861 345.46C166.451 330.568 163.246 309.72 163.246 282.915C163.246 256.407 166.421 235.708 172.772 220.816C179.182 205.924 189.213 198.479 202.864 198.479C216.575 198.479 226.606 205.924 232.957 220.816C239.367 235.708 242.572 256.407 242.572 282.915C242.572 309.869 239.397 330.717 233.046 345.46C226.695 360.203 216.634 367.574 202.864 367.574ZM202.864 322.006C209.453 322.006 214.201 318.878 217.109 312.624C220.018 306.22 221.472 296.317 221.472 282.915C221.472 269.81 220.018 260.056 217.109 253.652C214.201 247.249 209.453 244.047 202.864 244.047C196.335 244.047 191.617 247.249 188.708 253.652C185.8 260.056 184.346 269.81 184.346 282.915C184.346 296.168 185.8 305.997 188.708 312.4C191.617 318.804 196.335 322.006 202.864 322.006Z" fill="#F7EBDB"/>
<path d="M285.725 367.574C272.133 367.574 262.132 360.203 255.722 345.46C249.312 330.568 246.107 309.72 246.107 282.915C246.107 256.407 249.282 235.708 255.633 220.816C262.043 205.924 272.074 198.479 285.725 198.479C299.436 198.479 309.467 205.924 315.818 220.816C322.228 235.708 325.433 256.407 325.433 282.915C325.433 309.869 322.258 330.717 315.907 345.46C309.556 360.203 299.496 367.574 285.725 367.574ZM285.725 322.006C292.314 322.006 297.062 318.878 299.97 312.624C302.879 306.22 304.333 296.317 304.333 282.915C304.333 269.81 302.879 260.056 299.97 253.652C297.062 247.249 292.314 244.047 285.725 244.047C279.197 244.047 274.478 247.249 271.57 253.652C268.661 260.056 267.207 269.81 267.207 282.915C267.207 296.168 268.661 305.997 271.57 312.4C274.478 318.804 279.197 322.006 285.725 322.006Z" fill="#F7EBDB"/>
<path d="M403.665 203.393C403.249 228.56 403.041 255.514 403.041 284.255C403.041 313.145 403.249 340.173 403.665 365.34H371.792L350.246 243.377L351.849 365.34H328.968C329.443 336.451 329.68 309.422 329.68 284.255C329.68 259.237 329.443 232.283 328.968 203.393H361.731L383.366 328.707L381.852 203.393H403.665Z" fill="#F7EBDB"/>
<path d="M45.4782 173.982C32.0642 173.982 22.1818 166.834 15.831 152.538C9.48012 138.242 6.30469 117.84 6.30469 91.3326C6.30469 64.6764 9.48012 43.6046 15.831 28.1172C22.1818 12.6298 32.0642 4.88611 45.4782 4.88611C64.234 4.88611 76.7873 21.0436 83.1382 53.3587C77.7963 57.9751 71.5345 64.8998 64.3527 74.1327C62.6314 65.7933 59.9012 59.6132 56.1619 55.5925C52.4819 51.5717 48.713 49.5613 44.855 49.5613C39.157 49.5613 34.9132 53.3587 32.1236 60.9535C29.334 68.3993 27.9391 77.6322 27.9391 88.6521C27.9391 100.565 29.423 110.32 32.3907 117.914C35.4177 125.36 40.0176 129.083 46.1904 129.083C51.1168 129.083 55.0342 127.073 57.9425 123.052C60.8508 118.882 62.9876 112.33 64.3527 103.395C69.2197 109.947 75.4519 117.319 83.0492 125.509C80.0815 143.528 75.1254 156.112 68.181 163.26C61.2366 170.408 53.669 173.982 45.4782 173.982Z" stroke="#1F5E1E" stroke-width="4" mask="url(#path-1-outside-1_28_27)"/>
<path d="M127.216 173.982C113.624 173.982 103.623 166.61 97.2127 151.868C90.8025 136.976 87.5974 116.127 87.5974 89.3222C87.5974 62.8149 90.7728 42.1154 97.1236 27.2237C103.534 12.332 113.565 4.88611 127.216 4.88611C140.927 4.88611 150.958 12.332 157.308 27.2237C163.719 42.1154 166.924 62.8149 166.924 89.3222C166.924 116.276 163.748 137.125 157.397 151.868C151.047 166.61 140.986 173.982 127.216 173.982ZM127.216 128.413C133.804 128.413 138.553 125.286 141.461 119.031C144.369 112.628 145.823 102.725 145.823 89.3222C145.823 76.2175 144.369 66.4634 141.461 60.06C138.553 53.6565 133.804 50.4548 127.216 50.4548C120.687 50.4548 115.968 53.6565 113.06 60.06C110.152 66.4634 108.698 76.2175 108.698 89.3222C108.698 102.576 110.152 112.404 113.06 118.808C115.968 125.211 120.687 128.413 127.216 128.413Z" stroke="#1F5E1E" stroke-width="4" mask="url(#path-1-outside-1_28_27)"/>
<path d="M255.525 9.57701L262.469 171.748H239.41L237.986 56.0392L229.082 171.748H205.756L196.675 56.9327L195.34 171.748H172.281L179.225 9.57701L209.496 9.57701L217.241 115.234L224.008 9.57701H255.525Z" stroke="#1F5E1E" stroke-width="4" mask="url(#path-1-outside-1_28_27)"/>
<path d="M321.298 54.0288C314.235 53.1353 309.012 52.6141 305.629 52.4652V128.86C309.071 128.711 314.294 128.19 321.298 127.296V171.748H269.571V127.296C276.397 128.19 281.59 128.711 285.152 128.86V52.4652C281.59 52.6141 276.397 53.1353 269.571 54.0288V9.57701L321.298 9.57701V54.0288Z" stroke="#1F5E1E" stroke-width="4" mask="url(#path-1-outside-1_28_27)"/>
<path d="M403.129 9.80038C402.714 34.9674 402.506 61.9214 402.506 90.6625C402.506 119.552 402.714 146.581 403.129 171.748H371.256L349.711 49.7847L351.313 171.748H328.432C328.907 142.858 329.145 115.83 329.145 90.6625C329.145 65.6444 328.907 38.6903 328.432 9.80038L361.196 9.80038L382.83 135.114L381.317 9.80038H403.129Z" stroke="#1F5E1E" stroke-width="4" mask="url(#path-1-outside-1_28_27)"/>
<path d="M42.9853 272.863H81.0015V365.34H65.332L63.4624 325.803C61.6818 339.95 58.5064 350.449 53.9361 357.299C49.3659 364.149 43.7866 367.574 37.1983 367.574C31.2036 367.574 25.8618 364.224 21.1728 357.522C16.5432 350.821 12.893 341.216 10.222 328.707C7.61047 316.198 6.30469 301.604 6.30469 284.925C6.30469 258.269 9.48012 237.197 15.831 221.71C22.1818 206.222 32.0642 198.479 45.4782 198.479C53.1348 198.479 59.8715 201.606 65.6882 207.86C71.5642 214.115 76.5499 223.795 80.6453 236.899C77.9744 240.324 72.7513 247.175 64.9759 257.45L62.7502 260.577C60.4354 254.769 57.7348 250.451 54.6484 247.621C51.562 244.643 48.2975 243.154 44.855 243.154C39.157 243.154 34.9132 246.951 32.1236 254.546C29.334 261.992 27.9391 271.225 27.9391 282.245C27.9391 294.158 29.423 303.763 32.3907 311.06C35.4177 318.357 40.0176 322.006 46.1904 322.006C48.8614 322.006 51.4433 321.038 53.9361 319.102C56.4883 317.166 58.6251 313.815 60.3463 309.05H42.9853V272.863Z" stroke="#1F5E1E" stroke-width="4" mask="url(#path-1-outside-1_28_27)"/>
<path d="M84.5578 346.13C86.5758 338.535 88.2377 331.462 89.5435 324.909C90.9087 318.357 92.2144 310.762 93.4609 302.125C97.675 308.231 102.572 312.996 108.151 316.421C113.73 319.846 118.924 321.559 123.731 321.559C128.658 321.559 132.13 320.516 134.148 318.432C136.166 316.198 137.175 313.815 137.175 311.283C137.175 302.2 131.655 297.658 120.615 297.658C108.507 297.658 99.7227 294.53 94.2621 288.276C88.8016 281.872 86.0713 271.597 86.0713 257.45C86.0713 237.346 89.3951 222.529 96.0428 212.998C102.69 203.467 111.326 198.702 121.951 198.702C128.123 198.702 134.445 200.712 140.914 204.733C147.443 208.605 153.319 213.966 158.542 220.816C156.821 230.645 155.011 242.633 153.111 256.78C152.755 259.758 152.459 261.992 152.221 263.481C149.194 257.375 144.624 252.312 138.51 248.291C132.397 244.122 126.996 242.037 122.307 242.037C116.668 242.037 112.87 243.005 110.911 244.941C108.952 246.728 107.973 249.408 107.973 252.982C107.973 256.556 109.308 259.46 111.979 261.694C114.71 263.779 118.627 264.821 123.731 264.821C136.314 264.821 145.455 268.47 151.153 275.767C156.851 282.915 159.7 293.935 159.7 308.826C159.7 329.675 156.673 344.715 150.619 353.948C144.564 363.032 135.394 367.574 123.108 367.574C116.52 367.574 109.813 365.787 102.987 362.213C96.1615 358.49 90.0184 353.129 84.5578 346.13Z" stroke="#1F5E1E" stroke-width="4" mask="url(#path-1-outside-1_28_27)"/>
<path d="M202.864 367.574C189.272 367.574 179.271 360.203 172.861 345.46C166.451 330.568 163.246 309.72 163.246 282.915C163.246 256.407 166.421 235.708 172.772 220.816C179.182 205.924 189.213 198.479 202.864 198.479C216.575 198.479 226.606 205.924 232.957 220.816C239.367 235.708 242.572 256.407 242.572 282.915C242.572 309.869 239.397 330.717 233.046 345.46C226.695 360.203 216.634 367.574 202.864 367.574ZM202.864 322.006C209.453 322.006 214.201 318.878 217.109 312.624C220.018 306.22 221.472 296.317 221.472 282.915C221.472 269.81 220.018 260.056 217.109 253.652C214.201 247.249 209.453 244.047 202.864 244.047C196.335 244.047 191.617 247.249 188.708 253.652C185.8 260.056 184.346 269.81 184.346 282.915C184.346 296.168 185.8 305.997 188.708 312.4C191.617 318.804 196.335 322.006 202.864 322.006Z" stroke="#1F5E1E" stroke-width="4" mask="url(#path-1-outside-1_28_27)"/>
<path d="M285.725 367.574C272.133 367.574 262.132 360.203 255.722 345.46C249.312 330.568 246.107 309.72 246.107 282.915C246.107 256.407 249.282 235.708 255.633 220.816C262.043 205.924 272.074 198.479 285.725 198.479C299.436 198.479 309.467 205.924 315.818 220.816C322.228 235.708 325.433 256.407 325.433 282.915C325.433 309.869 322.258 330.717 315.907 345.46C309.556 360.203 299.496 367.574 285.725 367.574ZM285.725 322.006C292.314 322.006 297.062 318.878 299.97 312.624C302.879 306.22 304.333 296.317 304.333 282.915C304.333 269.81 302.879 260.056 299.97 253.652C297.062 247.249 292.314 244.047 285.725 244.047C279.197 244.047 274.478 247.249 271.57 253.652C268.661 260.056 267.207 269.81 267.207 282.915C267.207 296.168 268.661 305.997 271.57 312.4C274.478 318.804 279.197 322.006 285.725 322.006Z" stroke="#1F5E1E" stroke-width="4" mask="url(#path-1-outside-1_28_27)"/>
<path d="M403.665 203.393C403.249 228.56 403.041 255.514 403.041 284.255C403.041 313.145 403.249 340.173 403.665 365.34H371.792L350.246 243.377L351.849 365.34H328.968C329.443 336.451 329.68 309.422 329.68 284.255C329.68 259.237 329.443 232.283 328.968 203.393H361.731L383.366 328.707L381.852 203.393H403.665Z" stroke="#1F5E1E" stroke-width="4" mask="url(#path-1-outside-1_28_27)"/>
</g>
<defs>
<filter id="filter0_d_28_27" x="0.304688" y="0.886108" width="413.393" height="378.688" filterUnits="userSpaceOnUse" color-interpolation-filters="sRGB">
<feFlood flood-opacity="0" result="BackgroundImageFix"/>
<feColorMatrix in="SourceAlpha" type="matrix" values="0 0 0 0 0 0 0 0 0 0 0 0 0 0 0 0 0 0 127 0" result="hardAlpha"/>
<feOffset dx="2" dy="4"/>
<feGaussianBlur stdDeviation="3"/>
<feComposite in2="hardAlpha" operator="out"/>
<feColorMatrix type="matrix" values="0 0 0 0 0.0331466 0 0 0 0 0.112345 0 0 0 0 0.0648258 0 0 0 0.3 0"/>
<feBlend mode="normal" in2="BackgroundImageFix" result="effect1_dropShadow_28_27"/>
<feBlend mode="normal" in="SourceGraphic" in2="effect1_dropShadow_28_27" result="shape"/>
</filter>
</defs>
</svg>
