<svg width="600" height="215" viewBox="0 0 600 215" fill="none" xmlns="http://www.w3.org/2000/svg">
<path d="M6.3477 133.522H548.697C561.968 133.526 574.726 128.253 584.289 118.81C593.853 109.366 599.482 96.4871 599.992 82.8758V49.0119C600.003 48.7971 600.003 48.5819 599.992 48.3673C599.002 35.1887 593.196 22.8811 583.737 13.9114C574.279 4.94168 561.867 -0.0273984 548.989 0.000113635H357.918C357.086 0.000113635 356.261 0.168628 355.489 0.496033C354.72 0.82344 354.02 1.30333 353.43 1.90829C352.84 2.51327 352.374 3.23146 352.055 4.0219C351.734 4.81233 351.571 5.6595 351.571 6.51505V46.4335C351.571 47.289 351.734 48.1362 352.055 48.9265C352.374 49.717 352.84 50.4353 353.43 51.0403C354.02 51.6453 354.72 52.125 355.489 52.4524C356.261 52.78 357.086 52.9485 357.918 52.9485H527.726H529.094H530.933C534.502 52.9485 537.927 54.4036 540.45 56.994C542.973 59.5843 544.391 63.0977 544.391 66.7611C544.391 70.4244 542.973 73.9376 540.45 76.528C537.927 79.1183 534.502 80.5737 530.933 80.5737H529.879H527.636H6.3477C4.66428 80.5737 3.04979 81.2599 1.85945 82.4816C0.669092 83.7036 0.000355827 85.3606 0.000355827 87.0886V127.007C0.000355827 128.735 0.669092 130.392 1.85945 131.614C3.04979 132.835 4.66428 133.522 6.3477 133.522ZM6.3477 52.9485H242.074C243.758 52.9485 245.373 52.262 246.562 51.0403C247.752 49.8183 248.421 48.1613 248.421 46.4335V6.51505C248.421 4.78719 247.752 3.13009 246.562 1.90829C245.373 0.686507 243.758 0.000113635 242.074 0.000113635H6.3477C4.66428 0.000113635 3.04979 0.686507 1.85945 1.90829C0.669092 3.13009 0.000355827 4.78719 0.000355827 6.51505V46.4335C0.000355827 48.1613 0.669092 49.8183 1.85945 51.0403C3.04979 52.262 4.66428 52.9485 6.3477 52.9485ZM596.224 147.588C596.053 147.057 595.757 146.578 595.365 146.19C594.972 145.802 594.494 145.518 593.972 145.362C593.449 145.206 592.897 145.182 592.364 145.293C591.83 145.404 591.33 145.646 590.908 145.999C588.329 148.117 585.929 150.074 583.282 151.985C574.629 157.58 564.702 160.754 554.484 161.193H354.868C353.975 161.193 353.121 161.557 352.488 162.204C351.858 162.852 351.503 163.73 351.503 164.646V210.688C351.503 211.604 351.858 212.482 352.488 213.13C353.121 213.777 353.975 214.141 354.868 214.141H546.23C559.113 214.146 571.527 209.176 581.003 200.22C590.482 191.263 596.331 178.976 597.39 165.797C597.39 165.406 597.39 164.531 597.39 163.495C597.5 158.443 597.123 153.393 596.268 148.416C596.322 148.143 596.331 147.863 596.291 147.588H596.224ZM242.074 161.147H6.3477C4.67586 161.147 3.07151 161.824 1.88307 163.031C0.69463 164.238 0.0180784 165.877 0.000355827 167.593V207.488C-0.0085256 208.351 0.148933 209.206 0.463663 210.006C0.778392 210.806 1.24417 211.534 1.83417 212.148C2.42417 212.762 3.1267 213.25 3.90135 213.585C4.67599 213.919 5.5074 214.092 6.3477 214.095H242.074C243.76 214.089 245.373 213.398 246.564 212.172C247.752 210.947 248.421 209.287 248.421 207.557V167.593C248.403 165.877 247.728 164.238 246.539 163.031C245.35 161.824 243.747 161.147 242.074 161.147Z" fill="#5EFC5B"/>
</svg>
