<svg width="100%" height="100%" viewBox="0 0 268 93" fill="none" xmlns="http://www.w3.org/2000/svg" preserveAspectRatio="xMidYMid meet">
<path d="M2.83016 58.0001H244.64C250.557 58.0018 256.245 55.7113 260.509 51.6093C264.773 47.5072 267.283 41.9127 267.51 36.0001V21.2901C267.515 21.1968 267.515 21.1033 267.51 21.0101C267.069 15.2855 264.48 9.93925 260.263 6.04292C256.046 2.1466 250.512 -0.0119015 244.77 4.93617e-05H159.58C159.209 4.93617e-05 158.841 0.0732495 158.497 0.21547C158.154 0.357691 157.842 0.566147 157.579 0.828937C157.316 1.09173 157.108 1.4037 156.966 1.74706C156.823 2.09041 156.75 2.45841 156.75 2.83005V20.1701C156.75 20.5417 156.823 20.9097 156.966 21.253C157.108 21.5964 157.316 21.9084 157.579 22.1712C157.842 22.434 158.154 22.6424 158.497 22.7846C158.841 22.9269 159.209 23.0001 159.58 23.0001H235.29H235.9H236.72C238.311 23.0001 239.838 23.6322 240.963 24.7574C242.088 25.8826 242.72 27.4088 242.72 29.0001C242.72 30.5914 242.088 32.1175 240.963 33.2427C239.838 34.3679 238.311 35.0001 236.72 35.0001H236.25H235.25H2.83016C2.0796 35.0001 1.35977 35.2982 0.829046 35.8289C0.298319 36.3597 0.000158648 37.0795 0.000158648 37.8301V55.1701C0.000158648 55.9206 0.298319 56.6404 0.829046 57.1712C1.35977 57.7019 2.0796 58.0001 2.83016 58.0001ZM2.83016 23.0001H107.93C108.681 23.0001 109.401 22.7019 109.931 22.1712C110.462 21.6404 110.76 20.9206 110.76 20.1701V2.83005C110.76 2.07949 110.462 1.35967 109.931 0.828937C109.401 0.298209 108.681 4.93617e-05 107.93 4.93617e-05H2.83016C2.0796 4.93617e-05 1.35977 0.298209 0.829046 0.828937C0.298319 1.35967 0.000158648 2.07949 0.000158648 2.83005V20.1701C0.000158648 20.9206 0.298319 21.6404 0.829046 22.1712C1.35977 22.7019 2.0796 23.0001 2.83016 23.0001ZM265.83 64.1101C265.754 63.8797 265.622 63.6714 265.447 63.503C265.272 63.3346 265.059 63.2112 264.826 63.1434C264.593 63.0755 264.347 63.0652 264.109 63.1134C263.871 63.1616 263.648 63.2668 263.46 63.4201C262.31 64.3401 261.24 65.1901 260.06 66.0201C256.202 68.4504 251.776 69.8294 247.22 70.0201H158.22C157.822 70.0201 157.441 70.1781 157.159 70.4594C156.878 70.7407 156.72 71.1222 156.72 71.5201V91.5201C156.72 91.9179 156.878 92.2994 157.159 92.5807C157.441 92.862 157.822 93.0201 158.22 93.0201H243.54C249.284 93.0219 254.819 90.8632 259.044 86.9727C263.27 83.0822 265.878 77.7446 266.35 72.0201C266.35 71.8501 266.35 71.4701 266.35 71.0201C266.399 68.8256 266.231 66.6317 265.85 64.4701C265.874 64.3515 265.878 64.2297 265.86 64.1101H265.83ZM107.93 70.0001H2.83016C2.08476 70 1.36945 70.294 0.839579 70.8183C0.309705 71.3426 0.00806035 72.0547 0.000158648 72.8001V90.1301C-0.00380119 90.5047 0.0664029 90.8764 0.206727 91.2238C0.347051 91.5712 0.554721 91.8873 0.817774 92.1541C1.08083 92.4209 1.39406 92.633 1.73944 92.7782C2.08482 92.9233 2.45551 92.9988 2.83016 93.0001H107.93C108.682 92.9974 109.401 92.697 109.932 92.1647C110.462 91.6324 110.76 90.9115 110.76 90.1601V72.8001C110.752 72.0547 110.451 71.3426 109.921 70.8183C109.391 70.294 108.676 70 107.93 70.0001Z" fill="currentColor"/>
</svg>
